<svg xmlns="http://www.w3.org/2000/svg" viewBox="0 0 48 48">
  <path d="M24,4C12.972,4,4,12.972,4,24s8.972,20,20,20s20-8.972,20-20S35.028,4,24,4z M24,32c2.528,0,4.856-1.167,6.388-3.202c0.665-0.882,1.919-1.061,2.801-0.396c0.882,0.664,1.06,1.918,0.396,2.8C31.29,34.251,27.797,36,24,36c-6.617,0-12-5.383-12-12s5.383-12,12-12c3.797,0,7.29,1.749,9.584,4.798c0.664,0.882,0.487,2.136-0.396,2.8c-0.883,0.665-2.137,0.487-2.801-0.396C28.856,17.167,26.528,16,24,16c-4.411,0-8,3.589-8,8S19.589,32,24,32z" fill="#FFFFFF" />
</svg>