<svg width="40" height="40" viewBox="0 0 40 40" fill="none" xmlns="http://www.w3.org/2000/svg">
<path d="M19.8096 20.5715C19.8096 19.157 20.3715 17.8004 21.3717 16.8002C22.3719 15.8 23.7284 15.2381 25.1429 15.2381C26.5574 15.2381 27.9139 15.8 28.9141 16.8002C29.9143 17.8004 30.4762 19.157 30.4762 20.5715C30.4762 21.986 29.9143 23.3425 28.9141 24.3427C27.9139 25.3429 26.5574 25.9048 25.1429 25.9048C23.7284 25.9048 22.3719 25.3429 21.3717 24.3427C20.3715 23.3425 19.8096 21.986 19.8096 20.5715Z" fill="#1ABCFE"/>
<path d="M9.14282 31.2381C9.14282 29.8236 9.70473 28.467 10.7049 27.4669C11.7051 26.4667 13.0617 25.9048 14.4762 25.9048H19.8095V31.2381C19.8095 32.6526 19.2476 34.0091 18.2474 35.0093C17.2472 36.0095 15.8906 36.5714 14.4762 36.5714C13.0617 36.5714 11.7051 36.0095 10.7049 35.0093C9.70473 34.0091 9.14282 32.6526 9.14282 31.2381V31.2381Z" fill="#0ACF83"/>
<path d="M19.8096 4.57144V15.2381H25.1429C26.5574 15.2381 27.9139 14.6762 28.9141 13.676C29.9143 12.6758 30.4762 11.3193 30.4762 9.90477C30.4762 8.49029 29.9143 7.13373 28.9141 6.13354C27.9139 5.13334 26.5574 4.57144 25.1429 4.57144H19.8096Z" fill="#FF7262"/>
<path d="M9.14282 9.90477C9.14282 11.3193 9.70473 12.6758 10.7049 13.676C11.7051 14.6762 13.0617 15.2381 14.4762 15.2381H19.8095V4.57144H14.4762C13.0617 4.57144 11.7051 5.13334 10.7049 6.13354C9.70473 7.13373 9.14282 8.49029 9.14282 9.90477V9.90477Z" fill="#F24E1E"/>
<path d="M9.14282 20.5715C9.14282 21.986 9.70473 23.3425 10.7049 24.3427C11.7051 25.3429 13.0617 25.9048 14.4762 25.9048H19.8095V15.2381H14.4762C13.0617 15.2381 11.7051 15.8 10.7049 16.8002C9.70473 17.8004 9.14282 19.157 9.14282 20.5715V20.5715Z" fill="#A259FF"/>
</svg>
