<svg width="40" height="40" viewBox="0 0 40 40" fill="none" xmlns="http://www.w3.org/2000/svg">
<path d="M31 6H9C7.34315 6 6 7.34315 6 9V31C6 32.6569 7.34315 34 9 34H31C32.6569 34 34 32.6569 34 31V9C34 7.34315 32.6569 6 31 6Z" fill="#F7DF1E"/>
<path d="M24.8089 27.8751C25.3729 28.796 26.1066 29.4728 27.4044 29.4728C28.4946 29.4728 29.1911 28.928 29.1911 28.1751C29.1911 27.2728 28.4755 26.9533 27.2755 26.4284L26.6178 26.1462C24.7191 25.3373 23.4578 24.324 23.4578 22.1817C23.4578 20.2084 24.9613 18.7062 27.3111 18.7062C28.984 18.7062 30.1866 19.2884 31.0533 20.8128L29.0044 22.1284C28.5533 21.3195 28.0666 21.0008 27.3111 21.0008C26.5404 21.0008 26.052 21.4897 26.052 22.1284C26.052 22.9177 26.5409 23.2373 27.6698 23.7262L28.3275 24.008C30.5631 24.9666 31.8253 25.944 31.8253 28.1413C31.8253 30.5102 29.9644 31.808 27.4653 31.808C25.0218 31.808 23.4431 30.6435 22.6707 29.1173L24.8089 27.8751ZM15.5142 28.1031C15.9275 28.8364 16.3035 29.4564 17.2075 29.4564C18.072 29.4564 18.6173 29.1182 18.6173 27.8031V18.8564H21.2484V27.8386C21.2484 30.5631 19.6511 31.8031 17.3195 31.8031C15.2129 31.8031 13.9929 30.7128 13.3724 29.3997L15.5142 28.1031Z" fill="black"/>
</svg>
